<svg width="80" height="104" viewBox="0 0 80 104" fill="none" xmlns="http://www.w3.org/2000/svg">
<g clip-path="url(#clip0_24_1198)">
<path d="M39.7492 60.1157C34.5421 60.1157 30.2734 64.3539 30.2734 69.5238C30.2734 74.7238 34.5421 78.9319 39.7492 78.9319C44.9865 78.9319 49.2249 74.6938 49.2249 69.5238C49.2551 64.3539 44.9865 60.1157 39.7492 60.1157Z" fill="#9C63E5"/>
<path d="M39.7496 0C26.1869 0 15.1369 10.9711 15.1369 24.437V35.0474H9.47572C4.26861 35.0775 0 39.2856 0 44.4855V94.5919C0 99.7919 4.26861 104 9.47572 104H70.0234C75.2608 104 79.4991 99.7618 79.4991 94.5919V44.4855C79.4991 39.2856 75.2305 35.0775 70.0234 35.0775H64.3622V24.437C64.3925 10.9711 53.3425 0 39.7496 0ZM24.0072 24.437C24.0072 15.8104 31.061 8.80694 39.7496 8.80694C48.4382 8.80694 55.492 15.8104 55.492 24.437V35.0474H24.0072V24.437ZM70.6289 43.8844V95.1931H8.87024V43.8844H70.6289Z" fill="#2C2C2E"/>
</g>
<defs>
<clipPath id="clip0_24_1198">
<rect width="79.5294" height="104" fill="white"/>
</clipPath>
</defs>
</svg>
